HIERARCHY
ROOT Hips
{
	OFFSET 0.00000 0.00000 0.00000
	CHANNELS 6 Xposition Yposition Zposition Zrotation Yrotation Xrotation 
	JOINT LHipJoint
	{
		OFFSET 0 0 0
		CHANNELS 3 Zrotation Yrotation Xrotation
		JOINT LeftUpLeg
		{
			OFFSET 1.37590 -1.78394 0.89329
			CHANNELS 3 Zrotation Yrotation Xrotation
			JOINT LeftLeg
			{
				OFFSET 2.47928 -6.81178 0.00000
				CHANNELS 3 Zrotation Yrotation Xrotation
				JOINT LeftFoot
				{
					OFFSET 2.63345 -7.23535 0.00000
					CHANNELS 3 Zrotation Yrotation Xrotation
					JOINT LeftToeBase
					{
						OFFSET 0.23938 -0.65768 2.27012
						CHANNELS 3 Zrotation Yrotation Xrotation
						End Site
						{
							OFFSET 0.00000 -0.00000 1.18363
						}
					}
				}
			}
		}
	}
	JOINT RHipJoint
	{
		OFFSET 0 0 0
		CHANNELS 3 Zrotation Yrotation Xrotation
		JOINT RightUpLeg
		{
			OFFSET -1.33617 -1.78394 0.89329
			CHANNELS 3 Zrotation Yrotation Xrotation
			JOINT RightLeg
			{
				OFFSET -2.56922 -7.05888 0.00000
				CHANNELS 3 Zrotation Yrotation Xrotation
				JOINT RightFoot
				{
					OFFSET -2.56568 -7.04915 0.00000
					CHANNELS 3 Zrotation Yrotation Xrotation
					JOINT RightToeBase
					{
						OFFSET -0.27533 -0.75646 2.18105
						CHANNELS 3 Zrotation Yrotation Xrotation
						End Site
						{
							OFFSET -0.00000 -0.00000 1.15233
						}
					}
				}
			}
		}
	}
	JOINT LowerBack
	{
		OFFSET 0 0 0
		CHANNELS 3 Zrotation Yrotation Xrotation
		JOINT Spine
		{
			OFFSET 0.06190 2.15152 -0.00935
			CHANNELS 3 Zrotation Yrotation Xrotation
			JOINT Spine1
			{
				OFFSET 0.06334 2.15332 0.00872
				CHANNELS 3 Zrotation Yrotation Xrotation
				JOINT Neck
				{
					OFFSET 0 0 0
					CHANNELS 3 Zrotation Yrotation Xrotation
					JOINT Neck1
					{
						OFFSET -0.04202 1.66908 0.23524
						CHANNELS 3 Zrotation Yrotation Xrotation
						JOINT Head
						{
							OFFSET 0.07510 1.69357 -0.24440
							CHANNELS 3 Zrotation Yrotation Xrotation
							End Site
							{
								OFFSET 0.02556 1.71719 -0.11000
							}
						}
					}
				}
				JOINT LeftShoulder
				{
					OFFSET 0 0 0
					CHANNELS 3 Zrotation Yrotation Xrotation
					JOINT LeftArm
					{
						OFFSET 3.67168 1.26306 -0.41342
						CHANNELS 3 Zrotation Yrotation Xrotation
						JOINT LeftForeArm
						{
							OFFSET 4.68510 -0.00000 -0.00000
							CHANNELS 3 Zrotation Yrotation Xrotation
							JOINT LeftHand
							{
								OFFSET 3.39626 -0.00000 -0.00000
								CHANNELS 3 Zrotation Yrotation Xrotation
								JOINT LeftFingerBase
								{
									OFFSET 0 0 0
									CHANNELS 3 Zrotation Yrotation Xrotation
									JOINT LeftHandIndex1
									{
										OFFSET 0.48608 -0.00000 -0.00000
										CHANNELS 3 Zrotation Yrotation Xrotation
										End Site
										{
											OFFSET 0.39189 -0.00000 -0.00000
										}
									}
								}
								JOINT LThumb
								{
									OFFSET 0 0 0
									CHANNELS 3 Zrotation Yrotation Xrotation
									End Site
									{
										OFFSET 0.39787 -0.00000 0.39787
									}
								}
							}
						}
					}
				}
				JOINT RightShoulder
				{
					OFFSET 0 0 0
					CHANNELS 3 Zrotation Yrotation Xrotation
					JOINT RightArm
					{
						OFFSET -3.04136 1.42992 -0.76390
						CHANNELS 3 Zrotation Yrotation Xrotation
						JOINT RightForeArm
						{
							OFFSET -5.55576 -0.00000 -0.00000
							CHANNELS 3 Zrotation Yrotation Xrotation
							JOINT RightHand
							{
								OFFSET -3.32774 -0.00000 -0.00000
								CHANNELS 3 Zrotation Yrotation Xrotation
								JOINT RightFingerBase
								{
									OFFSET 0 0 0
									CHANNELS 3 Zrotation Yrotation Xrotation
									JOINT RightHandIndex1
									{
										OFFSET -0.50763 -0.00000 -0.00000
										CHANNELS 3 Zrotation Yrotation Xrotation
										End Site
										{
											OFFSET -0.40926 -0.00000 -0.00000
										}
									}
								}
								JOINT RThumb
								{
									OFFSET 0 0 0
									CHANNELS 3 Zrotation Yrotation Xrotation
									End Site
									{
										OFFSET -0.41551 -0.00000 0.41551
									}
								}
							}
						}
					}
				}
			}
		}
	}
}
MOTION
Frames: 8
Frame Time: 0.04
0.00 0.00 0.00 0 0 0 0 0 0 -21 0 0 0 0 0 0 0 0 0 0 0 0 0 0 21 0 0 0 0 0 0 0 0 0 0 0 0 0 0 0 0 0 0 0 0 0 0 -16 0 0 21 0 0 11 0 0 0 -8 0 0 0 0 0 0 0 0 0 0 0 0 0 0 0 0 0 0 0 0 8 0 0 0 0 0 0 0 0 0 0 0 0 0 0 0 0 0
0.00 0.00 0.00 -405.8790 -87.6445 415.2080 0.0000 0.0000 0.0000 -21.1615 -4.0340 6.2279 0.9016 6.0514 16.9336 0.6287 -6.2331 -14.1587 0.5418 -4.7158 -13.0998 0.0000 0.0000 0.0000 14.7029 14.9899 -33.0832 -1.0489 -6.5127 18.2795 0.2929 -11.5005 2.6422 -0.4959 -4.5149 12.5298 1.5828 -1.7516 1.2348 4.7856 -2.2473 -3.1305 4.1705 -1.1404 -3.7919 -5.4528 -3.8667 -15.9120 6.8824 -4.8638 7.6701 2.5991 -2.0815 5.1975 0.0000 -0.0000 0.0000 -91.1243 -4.1091 24.7817 17.7933 -27.8916 -4.4521 -0.0000 -0.0000 21.9872 18.9057 21.3514 7.1078 -7.1250 0.0000 -0.0000 -10.0296 52.1561 -1.7816 0.0000 -0.0000 0.0000 78.9433 0.9027 7.8907 -14.3012 23.1636 -2.9455 0.0000 0.0000 10.1219 -15.9496 -26.3051 7.2181 7.1250 -0.0000 -0.0000 15.3004 -56.5279 -4.3959
0.00 0.00 0.00 -418.9620 -85.9727 428.5170 0.0000 0.0000 0.0000 -17.1189 -5.0368 1.3647 2.8816 10.5009 30.6145 -0.0956 -5.7993 0.0784 1.2865 -7.1874 -20.2717 0.0000 0.0000 0.0000 19.5045 15.9845 -27.3171 -1.2258 -7.0221 19.7809 0.3053 -10.1842 -0.5630 -1.0272 -6.4471 18.0873 3.5776 -2.0600 0.7324 6.0190 -2.6726 -2.9085 4.3296 -1.4203 -3.2897 -6.0048 -4.3992 -15.4027 6.7687 -5.4664 7.6144 2.6001 -2.4082 5.1462 0.0000 -0.0000 0.0000 -97.3253 2.1228 17.8534 9.5536 -16.0382 -1.3490 -0.0000 -0.0000 56.7867 13.2940 12.9177 3.0236 -7.1250 0.0000 -0.0000 -12.6721 42.8819 0.6740 0.0000 -0.0000 0.0000 83.9506 -2.5657 0.2055 -9.3403 15.7010 -1.2907 0.0000 0.0000 19.5811 -13.3536 -24.3355 5.5868 7.1250 -0.0000 -0.0000 16.8615 -54.1108 -3.8597
0.00 0.00 0.00 -419.2910 -83.2232 427.4820 0.0000 0.0000 0.0000 -11.8570 -5.6203 -7.1929 6.4560 14.8562 46.7857 0.2139 -3.6226 10.8429 0.4577 -4.3397 -12.0345 0.0000 0.0000 0.0000 24.9556 14.2159 -21.5478 -1.3284 -7.2989 20.6041 0.2389 -8.8457 -5.3235 -0.9134 -6.0898 17.0452 5.4104 -2.1846 1.0565 6.8864 -2.8254 -2.4964 4.2257 -1.5514 -3.0874 -8.1914 -6.1299 -13.5050 7.3722 -7.4940 6.3592 2.9857 -3.4672 4.6851 0.0000 -0.0000 0.0000 -98.7073 4.3648 1.4481 7.6758 -13.0259 -0.8776 -0.0000 -0.0000 64.4393 14.0023 14.4661 3.5646 -7.1250 0.0000 -0.0000 -12.4541 44.5041 0.1549 0.0000 -0.0000 0.0000 85.3020 -4.3178 -1.5238 -8.8890 14.9834 -1.1713 0.0000 0.0000 20.2205 -14.7052 -23.7420 6.0317 7.1250 -0.0000 -0.0000 15.2222 -53.7850 -3.3479
0.00 0.00 0.00 -433.3020 -82.0623 439.2820 0.0000 0.0000 0.0000 -6.8752 -5.1272 -21.8836 9.9587 17.3866 59.3502 0.0569 -0.2649 -4.4168 0.5949 -4.9376 -13.7308 0.0000 0.0000 0.0000 30.7301 10.8271 -10.8873 -0.9586 -6.2345 17.4665 -0.0230 -6.2550 -9.5085 -0.8205 -5.7797 16.1465 5.8313 -1.1017 0.8579 6.0568 -1.3861 -2.3160 3.0513 -0.8339 -2.8621 -12.1065 -8.5300 -10.1579 7.6362 -10.4374 6.1287 3.4904 -5.0602 4.5157 -0.0000 0.0000 0.0000 -90.7308 4.0494 0.5736 10.1980 -17.0486 -1.5325 -0.0000 -0.0000 41.2348 13.7141 20.5570 4.8977 -7.1250 0.0000 -0.0000 -14.7736 50.4979 -2.0404 -0.0000 0.0000 0.0000 76.1079 -0.0905 10.8231 -16.3601 26.0065 -3.8025 0.0000 0.0000 8.1675 -17.1330 -23.4819 7.0027 7.1250 -0.0000 -0.0000 12.6731 -53.9796 -2.8323
0.00 0.00 0.00 -448.4620 -80.4889 453.5920 0.0000 0.0000 0.0000 -2.2805 -5.4456 -30.8917 5.9454 14.3753 44.7624 0.3039 1.0207 -10.8342 0.8153 -5.7618 -16.0950 0.0000 0.0000 0.0000 34.4601 7.3663 -3.0115 -0.6881 -5.3033 14.7757 -0.3615 -2.1999 -12.3775 -0.8249 -5.7948 16.1901 7.0624 -0.4245 0.6567 4.5479 -0.4200 -2.9317 0.7722 -0.4021 -3.4219 -13.6170 -8.8930 -9.8263 4.7973 -10.5105 7.1858 2.8230 -5.3045 4.7153 -0.0000 0.0000 0.0000 -82.2789 2.1901 2.9821 13.0377 -21.3424 -2.4670 -0.0000 -0.0000 30.4736 15.4204 20.3929 5.4901 -7.1250 0.0000 -0.0000 -13.0726 50.6079 -1.8337 -0.0000 0.0000 0.0000 55.1078 15.4736 9.1696 -36.4309 45.8073 -15.8307 0.0000 0.0000 4.8495 -22.6200 -23.8064 9.5471 7.1250 -0.0000 -0.0000 7.1730 -55.3820 -1.8350
0.00 0.00 0.00 -454.8400 -80.0870 460.4870 0.0000 0.0000 0.0000 -0.4456 -6.9807 -30.9619 2.5079 9.8523 28.4996 0.1667 4.9143 -11.0739 0.7583 -5.5614 -15.5169 0.0000 0.0000 0.0000 35.2491 6.5762 -0.8401 -0.7637 -5.5808 15.5727 -0.5692 -0.6613 -14.5075 -0.5550 -4.7723 13.2602 7.4404 0.1570 0.2886 3.3984 0.3536 -3.3823 -0.6532 -0.0482 -3.6464 -13.1669 -8.5765 -10.7923 4.4261 -9.9728 7.5111 2.6522 -5.0408 4.8828 0.0000 -0.0000 0.0000 -78.8066 2.6995 8.4098 16.5053 -26.2009 -3.8664 -0.0000 -0.0000 24.9865 14.4290 20.2607 5.0916 -7.1250 0.0000 -0.0000 -13.9722 50.3194 -1.8636 0.0000 -0.0000 0.0000 39.1603 22.8719 1.4277 -54.9522 54.8075 -30.1769 0.0000 0.0000 4.7137 -25.8110 -24.6354 11.3985 7.1250 -0.0000 -0.0000 4.0698 -56.9280 -1.1909
0.00 0.00 0.00 -457.2350 -79.1299 464.0070 0.0000 0.0000 0.0000 2.8804 -10.8944 -28.1070 0.3520 3.8118 10.5477 0.0099 7.6816 -11.1635 0.8459 -5.8664 -16.3973 0.0000 0.0000 0.0000 35.9723 4.6517 1.2169 -0.8359 -5.8323 16.2985 -0.7791 1.3499 -16.2737 -0.2304 -3.0892 8.5272 8.8897 0.7659 -0.7707 2.4204 1.0882 -4.0518 -2.4786 0.2364 -3.6691 -12.1898 -8.0231 -11.5299 3.3604 -9.1671 7.6102 2.2285 -4.6738 4.8674 0.0000 -0.0000 0.0000 -76.1683 6.5160 14.9360 23.8148 -34.9678 -7.6002 -0.0000 -0.0000 18.7154 11.3766 20.5507 4.0402 -7.1250 0.0000 -0.0000 -16.9908 50.1259 -2.2027 0.0000 -0.0000 0.0000 17.4221 25.7129 -12.4078 -79.1585 59.5512 -50.6252 0.0000 0.0000 4.6443 -30.1358 -26.4509 14.4980 7.1250 -0.0000 -0.0000 -0.1991 -59.8900 0.0724
